<mxfile host="app.diagrams.net" modified="2022-04-02T11:40:32.858Z" agent="5.0 (Windows NT 10.0; Win64; x64) AppleWebKit/537.36 (KHTML, like Gecko) Chrome/100.0.4896.60 Safari/537.36" etag="VTl8T6GmRR2x-hpT7J0u" version="17.4.0" type="github">
  <diagram id="yITv1Lz9e41xssM_kCRO" name="Page-1">
    <mxGraphModel dx="1407" dy="916" grid="1" gridSize="10" guides="1" tooltips="1" connect="1" arrows="1" fold="1" page="1" pageScale="1" pageWidth="1100" pageHeight="850" math="0" shadow="0">
      <root>
        <mxCell id="0" />
        <mxCell id="1" parent="0" />
        <mxCell id="ND3pXLhsU8EhmbNZYtu8-1" value="&lt;font&gt;&lt;font style=&quot;font-size: 15px&quot;&gt;College_Sports_Money.csv&lt;br&gt;School_Data.csv&lt;br&gt;&lt;/font&gt;(Manually downloaded &lt;br&gt;from Data Source)&lt;/font&gt;" style="shape=image;html=1;verticalAlign=top;verticalLabelPosition=bottom;labelBackgroundColor=#ffffff;imageAspect=0;aspect=fixed;image=https://cdn3.iconfinder.com/data/icons/dompicon-glyph-file-format-2/256/file-csv-format-type-128.png;fontFamily=Garamond;imageBorder=none;labelBorderColor=none;fontColor=#209164;" vertex="1" parent="1">
          <mxGeometry x="110" y="120" width="60" height="60" as="geometry" />
        </mxCell>
        <mxCell id="ND3pXLhsU8EhmbNZYtu8-2" value="&lt;font face=&quot;Garamond&quot; size=&quot;1&quot; color=&quot;#209164&quot;&gt;&lt;b&gt;&lt;u style=&quot;font-size: 26px&quot;&gt;COLLEGE SPORTS REVENUE&lt;/u&gt;&lt;/b&gt;&lt;/font&gt;" style="text;html=1;strokeColor=none;fillColor=none;align=center;verticalAlign=middle;whiteSpace=wrap;rounded=0;fontFamily=Times New Roman;" vertex="1" parent="1">
          <mxGeometry x="335" y="20" width="430" height="40" as="geometry" />
        </mxCell>
        <mxCell id="ND3pXLhsU8EhmbNZYtu8-7" value="" style="shape=image;html=1;verticalAlign=top;verticalLabelPosition=bottom;labelBackgroundColor=#ffffff;imageAspect=0;aspect=fixed;image=https://cdn3.iconfinder.com/data/icons/dompicon-glyph-file-format-2/256/file-csv-format-type-128.png;fontFamily=Garamond;imageBorder=none;labelBorderColor=#209164;fontColor=#209164;" vertex="1" parent="1">
          <mxGeometry x="60" y="120" width="60" height="60" as="geometry" />
        </mxCell>
      </root>
    </mxGraphModel>
  </diagram>
</mxfile>
